# xmcd
#
# Track frame offsets:
#	150
#	16275
#	36300
#	49125
#	61350
#	74175
#	93525
#	110700
#	126375
#	141300
#	154913
#	171975
#
# Disc length: 2458 seconds
#
# Revision: 4
# Processed by: cddbd v1.5.1PL2 Copyright (c) Steve Scherf et al.
# Submitted via: audiograbber 1.83.01
#
DISCID=bd09980c
DTITLE=Various Artist - NU2037
DYEAR=2004
DGENRE=Karaoke CD+G
TTITLE0=Sawyer Brown - Hard To Say
TTITLE1=Tevin Campbell - Always In My Heart
TTITLE2=Shenandoah - If Bubba Can Dance (I Can Too)
TTITLE3=Pam Tillis - When You Walk In The Room
TTITLE4=Ken Mellons - Jukebox Junkie
TTITLE5=Clay Walker - Where Do I Fit In The Picture
TTITLE6=Little Texas - Kick A Little
TTITLE7=Tractors - The Baby Likes To Rock It
TTITLE8=Alabama - We Can't Love Like This Anymore
TTITLE9=Rich Mullins - Hold Me Jesus
TTITLE10=Amy Grant - We Believe In God
TTITLE11=Patty Loveless - I Try To Think About Elvis
EXTD=
EXTT0=
EXTT1=
EXTT2=
EXTT3=
EXTT4=
EXTT5=
EXTT6=
EXTT7=
EXTT8=
EXTT9=
EXTT10=
EXTT11=
PLAYORDER=
